# xmcd
#
# Track frame offsets:
# 150
# 17669
# 32696
# 50764
# 71600
# 81406
# 90024
# 103741
# 123430
# 137809
# 152778
# 161912
# 177688
# 186818
# 200939
#
# Disc length: 2897 seconds
#
# Revision: 0
# Processed by: cddbd v1.5.2PL0 Copyright (c) Steve Scherf et al.
# Submitted via: Axialis_AX_CDPlayer 2.6
#
DISCID=d70b4f0f
DTITLE=Various Artist - A Country Christmas
DYEAR=1900
DGENRE=
TTITLE0=God Bless The Child [Shania Twain]
TTITLE1=I Know What I Want For Christmas [George Strait]
TTITLE2=The Christmas Song [Lee Ann Womack]
TTITLE3=Do You Hear What I Hear? [Vince Gill]
TTITLE4=Let It Snow! Let It Snow! Let It Snow! [Joe Nichols]
TTITLE5=Frosty The Snowman [Loretta Lynn]
TTITLE6=The Sweetest Gift [Trisha Yearwood]
TTITLE7=Where My Heart Lives [Randy Travis]
TTITLE8=Light Of The World [Mark Chesnutt]
TTITLE9=Santa Claus Is Back In Town [The Mavericks]
TTITLE10=Winter Wonderland [Sammy Kershaw]
TTITLE11=Pretty Paper [Willie Nelson]
TTITLE12=Santa Claus Is Coming To Town [Loretta Lynn]
TTITLE13=No Room [Tracy Byrd]
TTITLE14=Silent Night [Julie Roberts]
EXTD=Year - 2008
EXTT0=
EXTT1=
EXTT2=
EXTT3=
EXTT4=
EXTT5=
EXTT6=
EXTT7=
EXTT8=
EXTT9=
EXTT10=
EXTT11=
EXTT12=
EXTT13=
EXTT14=
PLAYORDER=
